<svg width="15" height="13" viewBox="0 0 15 13" fill="none" xmlns="http://www.w3.org/2000/svg">
<path fill-rule="evenodd" clip-rule="evenodd" d="M0.928345 1.74951C0.928345 1.4843 1.0337 1.22994 1.22124 1.04241C1.40877 0.854869 1.66313 0.749512 1.92834 0.749512H13.9283C14.1936 0.749512 14.4479 0.854869 14.6355 1.04241C14.823 1.22994 14.9283 1.4843 14.9283 1.74951C14.9283 2.01473 14.823 2.26908 14.6355 2.45662C14.4479 2.64415 14.1936 2.74951 13.9283 2.74951H1.92834C1.66313 2.74951 1.40877 2.64415 1.22124 2.45662C1.0337 2.26908 0.928345 2.01473 0.928345 1.74951ZM0.928345 6.74951C0.928345 6.4843 1.0337 6.22994 1.22124 6.04241C1.40877 5.85487 1.66313 5.74951 1.92834 5.74951H13.9283C14.1936 5.74951 14.4479 5.85487 14.6355 6.04241C14.823 6.22994 14.9283 6.4843 14.9283 6.74951C14.9283 7.01473 14.823 7.26908 14.6355 7.45662C14.4479 7.64415 14.1936 7.74951 13.9283 7.74951H1.92834C1.66313 7.74951 1.40877 7.64415 1.22124 7.45662C1.0337 7.26908 0.928345 7.01473 0.928345 6.74951ZM6.92834 11.7495C6.92834 11.4843 7.0337 11.2299 7.22124 11.0424C7.40877 10.8549 7.66313 10.7495 7.92834 10.7495H13.9283C14.1936 10.7495 14.4479 10.8549 14.6355 11.0424C14.823 11.2299 14.9283 11.4843 14.9283 11.7495C14.9283 12.0147 14.823 12.2691 14.6355 12.4566C14.4479 12.6442 14.1936 12.7495 13.9283 12.7495H7.92834C7.66313 12.7495 7.40877 12.6442 7.22124 12.4566C7.0337 12.2691 6.92834 12.0147 6.92834 11.7495Z" fill="black"/>
</svg>
