<svg width="30" height="10" viewBox="0 0 30 10" fill="none" xmlns="http://www.w3.org/2000/svg">
<path d="M8.71023 3.54545H6.30682C6.28977 3.34659 6.24432 3.16619 6.17045 3.00426C6.09943 2.84233 6 2.70312 5.87216 2.58665C5.74716 2.46733 5.59517 2.37642 5.41619 2.31392C5.23722 2.24858 5.03409 2.21591 4.80682 2.21591C4.40909 2.21591 4.07244 2.3125 3.79688 2.50568C3.52415 2.69886 3.31676 2.97585 3.17472 3.33665C3.03551 3.69744 2.96591 4.13068 2.96591 4.63636C2.96591 5.17045 3.03693 5.6179 3.17898 5.97869C3.32386 6.33665 3.53267 6.60653 3.8054 6.78835C4.07813 6.96733 4.40625 7.05682 4.78977 7.05682C5.00852 7.05682 5.20455 7.02983 5.37784 6.97585C5.55114 6.91903 5.7017 6.83807 5.82955 6.73295C5.95739 6.62784 6.06108 6.50142 6.14062 6.35369C6.22301 6.20312 6.27841 6.03409 6.30682 5.84659L8.71023 5.86364C8.68182 6.23295 8.57813 6.60937 8.39915 6.9929C8.22017 7.37358 7.96591 7.72585 7.63636 8.04972C7.30966 8.37074 6.90483 8.62926 6.42188 8.82528C5.93892 9.02131 5.37784 9.11932 4.73864 9.11932C3.9375 9.11932 3.21875 8.94744 2.58239 8.60369C1.94886 8.25994 1.44744 7.75426 1.07812 7.08665C0.711648 6.41903 0.528409 5.60227 0.528409 4.63636C0.528409 3.66477 0.715909 2.84659 1.09091 2.18182C1.46591 1.5142 1.97159 1.00994 2.60795 0.669034C3.24432 0.325284 3.95455 0.153409 4.73864 0.153409C5.28977 0.153409 5.79688 0.228693 6.25994 0.379261C6.72301 0.529829 7.12926 0.75 7.47869 1.03977C7.82813 1.3267 8.10938 1.6804 8.32244 2.10085C8.53551 2.52131 8.66477 3.00284 8.71023 3.54545Z" fill="#CC2229"/>
<path d="M9.78516 0.272727H12.734L14.7624 5.21591H14.8647L16.8931 0.272727H19.842V9H17.5238V3.95455H17.4556L15.5124 8.93182H14.1147L12.1715 3.92045H12.1033V9H9.78516V0.272727ZM23.2319 9H20.6751L23.5558 0.272727H26.7944L29.6751 9H27.1183L25.2092 2.67614H25.141L23.2319 9ZM22.7546 5.55682H27.5614V7.32955H22.7546V5.55682Z" fill="#292929"/>
</svg>
